<?xml version="1.0" encoding="UTF-8"?>
<svg width="13px" height="11px" viewBox="0 0 13 11" version="1.1" xmlns="http://www.w3.org/2000/svg" xmlns:xlink="http://www.w3.org/1999/xlink">
    <!-- Generator: Sketch 43.1 (39012) - http://www.bohemiancoding.com/sketch -->
    <title>Fill 1</title>
    <desc>Created with Sketch.</desc>
    <defs></defs>
    <g id="Page-1" stroke="none" stroke-width="1" fill="none" fill-rule="evenodd">
        <g id="The-home-page-of-the-portal" transform="translate(-387.000000, -2496.000000)" fill="#C1C7D4">
            <g id="views-/-comments" transform="translate(231.000000, 1913.000000)">
                <g id="icon">
                    <g id="Group-4">
                        <path d="M165.425778,591.831522 C166.391521,591.411 167.153778,590.838576 167.712137,590.113826 C168.270769,589.389641 168.549744,588.600315 168.549744,587.746978 C168.549744,586.893641 168.270769,586.104315 167.712137,585.38013 C167.153368,584.65538 166.391521,584.082957 165.425778,583.662435 C164.460444,583.241772 163.410325,583.031511 162.275145,583.031511 C161.139966,583.031511 160.089709,583.241772 159.123966,583.662435 C158.158632,584.082957 157.396376,584.65538 156.838154,585.38013 C156.279385,586.10488 156,586.893641 156,587.746978 C156,588.477804 156.211009,589.165533 156.633026,589.810304 C157.055043,590.454935 157.634598,590.998674 158.371282,591.44025 C158.311932,591.588196 158.251077,591.722859 158.188581,591.845935 C158.126085,591.968446 158.051829,592.086576 157.965812,592.200326 C157.879248,592.313935 157.812513,592.402815 157.764923,592.467391 C157.71747,592.531967 157.640479,592.622543 157.533128,592.738978 C157.426325,592.855413 157.357949,592.932141 157.328,592.969163 C157.328,592.963087 157.316239,592.976935 157.292718,593.010565 C157.26865,593.044196 157.255385,593.059739 157.25265,593.056913 C157.249504,593.053663 157.237744,593.069065 157.216821,593.102696 C157.196034,593.136467 157.185368,593.153565 157.185368,593.153565 L157.163487,593.199348 C157.154325,593.217576 157.148444,593.235804 157.145299,593.254598 C157.142564,593.272826 157.14106,593.293174 157.14106,593.314228 C157.14106,593.335707 157.143658,593.355489 157.150085,593.374283 C157.161846,593.453837 157.196034,593.518413 157.25265,593.567446 C157.308718,593.61662 157.369709,593.640924 157.43535,593.640924 L157.462017,593.640924 C157.759043,593.597826 158.014359,593.548793 158.22865,593.493543 C159.143658,593.247957 159.969504,592.854989 160.706188,592.3145 C161.240889,592.412848 161.763829,592.46188 162.275145,592.46188 C163.410325,592.462446 164.460444,592.252185 165.425778,591.831522 L165.425778,591.831522 Z" id="Fill-1"></path>
                    </g>
                </g>
            </g>
        </g>
    </g>
</svg>