<?xml version="1.0" encoding="UTF-8"?>
<svg width="16px" height="11px" viewBox="0 0 16 11" version="1.1" xmlns="http://www.w3.org/2000/svg" xmlns:xlink="http://www.w3.org/1999/xlink">
    <!-- Generator: Sketch 43.1 (39012) - http://www.bohemiancoding.com/sketch -->
    <title>icon</title>
    <desc>Created with Sketch.</desc>
    <defs></defs>
    <g id="Page-1" stroke="none" stroke-width="1" fill="none" fill-rule="evenodd">
        <g id="The-home-page-of-the-portal" transform="translate(-263.000000, -2497.000000)" fill="#C1C7D4">
            <g id="views-/-comments" transform="translate(231.000000, 1913.000000)">
                <g id="icon">
                    <g id="Group-4">
                        <path d="M40,584 C36.510642,584 33.4862037,586.070828 32,589.095856 C33.4862037,592.120883 36.510642,594.191712 40,594.191712 C43.4892017,594.191712 46.5136401,592.120883 48,589.095856 C46.5137963,586.070828 43.4892017,584 40,584 L40,584 Z M43.944512,586.702515 C44.8844683,587.313501 45.6811051,588.132142 46.2794225,589.095856 C45.6811051,590.05957 44.8844683,590.878211 43.9443557,591.489196 C42.7633459,592.257118 41.3993682,592.663034 40,592.663034 C38.6006318,592.663034 37.2366541,592.257118 36.0554489,591.489196 C35.1155317,590.878211 34.3188559,590.05957 33.7205775,589.095856 C34.3188559,588.131983 35.1155317,587.313501 36.0554489,586.702515 C36.1166596,586.662704 36.1784562,586.624127 36.2406824,586.586187 C36.0850582,587.021484 35.9999023,587.491099 35.9999023,587.981137 C35.9999023,590.23267 37.7908311,592.057742 40,592.057742 C42.2091298,592.057742 43.9999023,590.23267 43.9999023,587.981137 C43.9999023,587.491099 43.9147856,587.021484 43.7591223,586.586187 C43.8213876,586.623968 43.8831842,586.662704 43.944512,586.702515 L43.944512,586.702515 Z M40,587.471512 C40,588.315792 39.3284408,589.000388 38.4998901,589.000388 C37.6714957,589.000388 36.9999756,588.315792 36.9999756,587.471512 C36.9999756,586.627232 37.6714957,585.942835 38.4998901,585.942835 C39.3284408,585.942835 40,586.627232 40,587.471512 L40,587.471512 Z" id="icon"></path>
                    </g>
                </g>
            </g>
        </g>
    </g>
</svg>