<?xml version="1.0" encoding="UTF-8"?>
<svg width="115px" height="145px" viewBox="0 0 115 145" version="1.1" xmlns="http://www.w3.org/2000/svg" xmlns:xlink="http://www.w3.org/1999/xlink">
    <!-- Generator: Sketch 42 (36781) - http://www.bohemiancoding.com/sketch -->
    <title>Group 4</title>
    <desc>Created with Sketch.</desc>
    <defs></defs>
    <g id="Page-1" stroke="none" stroke-width="1" fill="none" fill-rule="evenodd">
        <g id="Анкета-успешно-отправлена" transform="translate(-774.000000, -447.000000)" fill-rule="nonzero">
            <g id="Group-4" transform="translate(774.000000, 447.000000)">
                <g id="document">
                    <g id="Layer_1">
                        <g id="document">
                            <polygon id="Shape" fill="#E6E9ED" points="90.6194335 0 0 0 0 144.644076 114.787562 144.644076 114.787562 24.1057447"></polygon>
                            <path d="M93.5178941,84.0253059 L21.0220074,84.0253059 C19.3536576,84.0253059 18,82.6788451 18,81.0147722 C18,79.3464607 19.3536576,78 21.0220074,78 L93.5176108,78 C95.1856773,78 96.5396182,79.3464607 96.5396182,81.0147722 C96.5399015,82.6791277 95.1856773,84.0253059 93.5178941,84.0253059 Z" id="Shape" fill="#434A54"></path>
                            <path d="M93.7479433,102.470043 L21.2520567,102.470043 C19.5837069,102.470043 18.2300493,101.123582 18.2300493,99.4597918 C18.2300493,97.7911977 19.5837069,96.444737 21.2520567,96.444737 L93.7476601,96.444737 C95.4157266,96.444737 96.7696675,97.7911977 96.7696675,99.4597918 C96.7699507,101.123582 95.4157266,102.470043 93.7479433,102.470043 Z" id="Shape" fill="#434A54"></path>
                            <path d="M60.5220074,120.550482 L21.2520567,120.550482 C19.5837069,120.550482 18.2300493,119.204021 18.2300493,117.539948 C18.2300493,115.871637 19.5837069,114.525176 21.2520567,114.525176 L60.5220074,114.525176 C62.1903571,114.525176 63.5394828,115.871637 63.5394828,117.539948 C63.5394828,119.204303 62.1903571,120.550482 60.5220074,120.550482 Z" id="Shape" fill="#434A54"></path>
                            <polygon id="Shape" fill="#CCD1D9" points="90.7256527 0.016671812 90.7256527 24.1224165 114.893781 24.1224165"></polygon>
                        </g>
                    </g>
                </g>
                <g id="check" transform="translate(37.000000, 27.000000)" fill="#50D166">
                    <g id="Layer_1">
                        <path d="M14.3497438,28.4909737 C13.8059813,28.4909737 13.2847688,28.2767807 12.9003938,27.8952018 L0.60039375,15.6841667 C-0.20013125,14.8894649 -0.20013125,13.6012544 0.60039375,12.8065526 C1.40091875,12.0118509 2.69908125,12.0118509 3.49909375,12.8065526 L14.3497438,23.5782719 L37.5003938,0.596026316 C38.3009188,-0.198675439 39.5990812,-0.198675439 40.3990938,0.596026316 C41.1996187,1.39072807 41.1996187,2.67944737 40.3990938,3.47414912 L15.7990938,27.8952018 C15.4147188,28.2767807 14.8935063,28.4909737 14.3497438,28.4909737 Z" id="Shape"></path>
                    </g>
                </g>
            </g>
        </g>
    </g>
</svg>