<?xml version="1.0" encoding="UTF-8"?>
<svg width="16px" height="16px" viewBox="0 0 16 16" version="1.1" xmlns="http://www.w3.org/2000/svg" xmlns:xlink="http://www.w3.org/1999/xlink">
    <!-- Generator: Sketch 42 (36781) - http://www.bohemiancoding.com/sketch -->
    <title>Fill 1</title>
    <desc>Created with Sketch.</desc>
    <defs></defs>
    <g id="Page-1" stroke="none" stroke-width="1" fill="none" fill-rule="evenodd">
        <g id="Форма-регистрации-на-портал" transform="translate(-1141.000000, -147.000000)" fill="#1E2022">
            <path d="M1156.55009,160.666388 L1153.08708,157.203383 C1153.0687,157.185075 1153.04728,157.172259 1153.02802,157.155224 C1153.70925,156.121592 1154.10695,154.88402 1154.10695,153.553552 C1154.10695,149.934129 1151.1729,147 1147.55347,147 C1143.93405,147 1141,149.934129 1141,153.553552 C1141,157.172896 1143.93405,160.107025 1147.55347,160.107025 C1148.88402,160.107025 1150.12127,159.709333 1151.15483,159.02802 C1151.17194,159.047284 1151.18468,159.068776 1151.20338,159.087085 L1154.66639,162.55009 C1155.18659,163.070289 1156.02981,163.070289 1156.55009,162.55009 C1157.07029,162.029891 1157.07029,161.186587 1156.55009,160.666388 L1156.55009,160.666388 Z M1147.55347,157.835264 C1145.18874,157.835264 1143.27176,155.918289 1143.27176,153.553552 C1143.27176,151.188736 1145.18874,149.271761 1147.55347,149.271761 C1149.91821,149.271761 1151.83518,151.188736 1151.83518,153.553552 C1151.83518,155.918289 1149.91821,157.835264 1147.55347,157.835264 L1147.55347,157.835264 Z" id="Fill-1"></path>
        </g>
    </g>
</svg>