<?xml version="1.0" encoding="UTF-8"?>
<svg width="17px" height="18px" viewBox="0 0 17 18" version="1.1" xmlns="http://www.w3.org/2000/svg" xmlns:xlink="http://www.w3.org/1999/xlink">
    <!-- Generator: Sketch 43.1 (39012) - http://www.bohemiancoding.com/sketch -->
    <title>Icon</title>
    <desc>Created with Sketch.</desc>
    <defs></defs>
    <g id="Page-1" stroke="none" stroke-width="1" fill="none" fill-rule="evenodd">
        <g id="The-home-page-of-the-portal" transform="translate(-737.000000, -1239.000000)" fill="#86939E">
            <g id="12" transform="translate(198.000000, 1159.000000)">
                <g id="Input" transform="translate(519.000000, 59.000000)">
                    <path d="M24.3060635,29.7649944 C24.6000635,29.8741564 24.9280635,29.838766 25.1920635,29.6707861 L34.0305635,24.0432089 L26.7405635,30.9807305 C26.5440635,31.1676518 26.4320635,31.4268493 26.4310635,31.6975114 L26.4060635,37.7079033 C26.4040635,38.2477321 27.1435635,38.4057429 27.3630635,37.9122706 L29.3095635,33.53582 C29.4290635,33.2676503 29.7535635,33.1594851 30.0105635,33.3025422 L35.1725635,36.1711611 C35.4965635,36.3516024 35.8980635,36.1287922 35.9150635,35.7594358 L36.5845635,21.5220145 C36.6015635,21.1586395 36.2345635,20.8999404 35.8965635,21.0375145 L20.3115635,27.363928 C19.8890635,27.5353972 19.8985635,28.1345422 20.3260635,28.292553 L24.3060635,29.7649944 Z" id="Icon"></path>
                </g>
            </g>
        </g>
    </g>
</svg>